<svg xmlns="http://www.w3.org/2000/svg" viewBox="0 0 490 420" width="490" height="420">
<rect width="100%" height="100%" fill="#0d1117" rx="6"/>
<circle cx="20" cy="16" r="6" fill="#ff5f56"/>
<circle cx="40" cy="16" r="6" fill="#ffbd2e"/>
<circle cx="60" cy="16" r="6" fill="#27c93f"/>
<style>
text { font-family: "SFMono-Regular","Cascadia Code","Fira Code","Menlo",monospace; font-size: 13px; fill: #c9d1d9; }
.l0 { opacity: 0; animation: type 0.06s 0.000s forwards; }
.l1 { opacity: 0; animation: type 0.06s 0.040s forwards; }
.l2 { opacity: 0; animation: type 0.06s 0.080s forwards; }
.l3 { opacity: 0; animation: type 0.06s 0.120s forwards; }
.l4 { opacity: 0; animation: type 0.06s 0.160s forwards; }
.l5 { opacity: 0; animation: type 0.06s 0.200s forwards; }
.l6 { opacity: 0; animation: type 0.06s 0.240s forwards; }
.l7 { opacity: 0; animation: type 0.06s 0.280s forwards; }
.l8 { opacity: 0; animation: type 0.06s 0.320s forwards; }
.l9 { opacity: 0; animation: type 0.06s 0.360s forwards; }
.l10 { opacity: 0; animation: type 0.06s 0.400s forwards; }
.l11 { opacity: 0; animation: type 0.06s 0.440s forwards; }
.l12 { opacity: 0; animation: type 0.06s 0.480s forwards; }
.l13 { opacity: 0; animation: type 0.06s 0.520s forwards; }
@keyframes type { from { opacity: 0; } to { opacity: 1; } }
</style>
<text x="20" y="50" class="l0"><tspan fill="#58a6ff">aman@earth</tspan></text>
<text x="20" y="74" class="l1"><tspan fill="#c9d1d9">----------</tspan></text>
<text x="20" y="98" class="l2"><tspan fill="#58a6ff">os</tspan><tspan fill="#c9d1d9"> ~ AI Engineer · Delhi, India</tspan></text>
<text x="20" y="122" class="l3"><tspan fill="#58a6ff">uptime</tspan><tspan fill="#c9d1d9"> ~ ~3 yrs building AI products</tspan></text>
<text x="20" y="146" class="l4"><tspan fill="#58a6ff">shell</tspan><tspan fill="#c9d1d9"> ~ Python · TypeScript · C++</tspan></text>
<text x="20" y="170" class="l5"><tspan fill="#58a6ff">wm</tspan><tspan fill="#c9d1d9"> ~ PyTorch · TensorFlow · HuggingFace</tspan></text>
<text x="20" y="194" class="l6"><tspan fill="#58a6ff">editor</tspan><tspan fill="#c9d1d9"> ~ VS Code · Neovim · Cursor</tspan></text>
<text x="20" y="218" class="l7"><tspan fill="#58a6ff">cloud</tspan><tspan fill="#c9d1d9"> ~ AWS · GCP · Docker · K8s</tspan></text>
<text x="20" y="242" class="l8"><tspan fill="#58a6ff">frontend</tspan><tspan fill="#c9d1d9"> ~ React · Next.js · TailwindCSS</tspan></text>
<text x="20" y="266" class="l9"><tspan fill="#58a6ff">backend</tspan><tspan fill="#c9d1d9"> ~ FastAPI · Node.js · PostgreSQL</tspan></text>
<text x="20" y="290" class="l10"><tspan fill="#58a6ff">interests</tspan><tspan fill="#c9d1d9"> ~ LLMs · Computer Vision · MLOps</tspan></text>
<text x="20" y="314" class="l11"><tspan fill="#58a6ff">fun</tspan><tspan fill="#c9d1d9"> ~ Hala Madrid · F1 · Anime</tspan></text>
<rect x="20" y="367" width="22" height="22" rx="3" fill="#282c34" class="l13"/>
<rect x="46" y="367" width="22" height="22" rx="3" fill="#e06c75" class="l13"/>
<rect x="72" y="367" width="22" height="22" rx="3" fill="#98c379" class="l13"/>
<rect x="98" y="367" width="22" height="22" rx="3" fill="#e5c07b" class="l13"/>
<rect x="124" y="367" width="22" height="22" rx="3" fill="#61afef" class="l13"/>
<rect x="150" y="367" width="22" height="22" rx="3" fill="#c678dd" class="l13"/>
<rect x="176" y="367" width="22" height="22" rx="3" fill="#56b6c2" class="l13"/>
<rect x="202" y="367" width="22" height="22" rx="3" fill="#abb2bf" class="l13"/>
<rect x="20" y="393" width="22" height="22" rx="3" fill="#5c6370" class="l13"/>
<rect x="46" y="393" width="22" height="22" rx="3" fill="#be5046" class="l13"/>
<rect x="72" y="393" width="22" height="22" rx="3" fill="#7ec16e" class="l13"/>
<rect x="98" y="393" width="22" height="22" rx="3" fill="#d19a66" class="l13"/>
<rect x="124" y="393" width="22" height="22" rx="3" fill="#4e88ff" class="l13"/>
<rect x="150" y="393" width="22" height="22" rx="3" fill="#a475cf" class="l13"/>
<rect x="176" y="393" width="22" height="22" rx="3" fill="#48a8b5" class="l13"/>
<rect x="202" y="393" width="22" height="22" rx="3" fill="#ffffff" class="l13"/>
</svg>